<?xml version="1.0" encoding="UTF-8" standalone="no"?>
<svg
  xmlns="http://www.w3.org/2000/svg"
  viewBox="0 0 3220.3201 2144.2134"
  height="2144.2134"
  width="3220.3201"
  version="1.1"
>
  <defs id="defs6">
    <radialGradient id="radialGradient22" spreadMethod="pad"
      gradientTransform="matrix(18166.8,0,0,-18166.8,12136.2,7980.8)" gradientUnits="userSpaceOnUse"
      r="1" cy="0" cx="0" fy="0" fx="0">
      <stop id="stop16" offset="0" style="stop-opacity:1;stop-color:#ffffff" />
      <stop id="stop18" offset="0.232039" style="stop-opacity:1;stop-color:#ffffff" />
      <stop id="stop20" offset="1" style="stop-opacity:1;stop-color:#a4a5a8" />
    </radialGradient>
  </defs>
  <g transform="matrix(1.3333333,0,0,-1.3333333,0,2144.2133)" id="g10">
    <g transform="scale(0.1)" id="g12">
      <path id="path26" style="fill:#e6cbbc;fill-opacity:1;fill-rule:nonzero;stroke:none"
        d="m 14308.8,9992.41 c 0,0 69.7,251.09 221.8,384.89 152,133.7 226.6,-86.5 199.8,-192.5 -26.8,-105.9 -208.1,-672.89 -208.1,-672.89 0,0 78.6,492.29 0,506.79 -78.6,14.5 -20.7,-445.91 -78.6,-592.18 -57.9,-146.28 -75.3,-228.77 -198.8,-188.41 -123.5,40.36 -26,147.26 -26,147.26 l 51,327.45 38.9,279.59" />
      <path id="path28" style="fill:#e6cbbc;fill-opacity:1;fill-rule:nonzero;stroke:none"
        d="m 10346,5435.9 c 0,0 1269.5,281.6 2070.1,989.19 853.8,754.6 952,871.46 1022.8,675.98 70.8,-195.47 111.9,-723.97 -1562.9,-1665.17 -1674.8,-941.1 -1244.1,-1634.1 -1244.1,-1634.1 0,0 21.8,627.8 1020.9,1018.8 999,390.9 2541.1,1846.09 2541.1,1846.09 l -162.9,2237.08 -203.2,456.11 c 0,0 -643.7,-1487.77 -1632,-2226.23 C 11207.5,6395.19 10346,5435.9 10346,5435.9" />
      <path id="path30" style="fill:#505256;fill-opacity:1;fill-rule:nonzero;stroke:none"
        d="m 9635.92,8472.86 c 0,0 197.84,-90.35 556.18,-68.63 0,0 -363.08,-128.26 -556.18,-74.99 -193.11,53.27 0,143.62 0,143.62" />
      <path id="path32" style="fill:#e6cbbc;fill-opacity:1;fill-rule:nonzero;stroke:none"
        d="m 9660.01,8536.67 h 959.39 c 0,0 -79.8,327.66 -438.1,352.82 -358.4,25.14 -575.59,-352.82 -575.59,-352.82 h 54.3" />
      <path id="path34" style="fill:#e6cbbc;fill-opacity:1;fill-rule:nonzero;stroke:none"
        d="m 10898.7,13656 c -53.7,-10.8 -84.7,-21.4 -84.7,-21.4 l 84.7,21.4" />
      <path id="path36" style="fill:#e6cbbc;fill-opacity:1;fill-rule:nonzero;stroke:none"
        d="m 14152.5,11850.9 405.9,793.8 -1136.8,450.9 c 0,0 -1180.4,704.2 -1407.4,820.9 -227,116.6 -468,-96.9 -468,-96.9 l -647.5,-163.6 c 224.5,45 880.8,110.1 1297.1,-632.8 988.2,-1763.5 -1476,-1568.7 -1476,-1568.7 0,0 -167.6,-72 -205.6,-677.9 -37.9,-605.9 133.7,-909.94 301.3,-852.02 58,20.07 122.5,83.72 187.3,154.82 l 0.1,-0.1 c 0,0 0.3,0.5 0.4,0.6 18.3,20.1 36.6,40.6 54.8,61.1 59.6,57.5 161.1,131.2 274.3,107.3 179.2,-37.7 483.2,-91.3 620.8,-26.5 0,0 -186.8,19.1 -360,65.6 -15,5.2 -29.4,10.7 -42.4,16.7 185.2,26.5 450.4,124.4 740.7,285.9 443.6,246.8 791.1,-274 820.1,-672.4 28.9,-398.45 -476.7,-1814.1 -1606.7,-2394.95 0,0 853.7,0.29 1447.4,846.37 593.6,846.06 1121.1,1394.34 1121.1,1394.34 0,0 466.4,1289.24 79.1,2087.54" />
      <path id="path38" style="fill:#e6cbbc;fill-opacity:1;fill-rule:nonzero;stroke:none"
        d="m 9345.08,11385.2 c -16.29,5.4 -411.69,-199 -411.69,-199 0,0 450,41 702.53,-94.2 0,0 -545.5,-117.2 -662.51,-286.7 0,0 203.34,-278 529.13,-240 325.79,38 211.91,-120.1 211.91,-120.1 0,0 -239.62,-102.5 -426.67,-69.9 0,0 51.87,-143 323.36,-52.5 271.49,90.5 275.11,-79.7 195.47,-191.9 -79.63,-112.2 -79.63,-112.2 -79.63,-112.2 0,0 282.32,231.7 343.92,633.5 61.5,401.8 -302.3,602.7 -514.06,667.8 -211.76,65.2 -211.76,65.2 -211.76,65.2" />
      <path id="path40" style="fill:#e6cbbc;fill-opacity:1;fill-rule:nonzero;stroke:none"
        d="m 10345.8,9068.1 c 0,0 274.8,-187.48 572.2,-357.23 -145.1,206.71 -572.2,357.23 -572.2,357.23" />
      <path id="path42" style="fill:#e6cbbc;fill-opacity:1;fill-rule:nonzero;stroke:none"
        d="m 11864.3,8725.5 c 0,0 -88,-59.05 -225.5,-252.64 -70.5,-99.2 -408.2,59.61 -720.8,238.01 51.7,-73.64 67.9,-154.35 15.9,-238.01 -198.2,-318.52 -801,-379.94 -801,-379.94 117,-124.8 -149.45,-165.29 -149.45,-165.29 l 276.35,-182.22 120.3,-470.59 212,-65.15 c 0,0 912.8,312.98 545.7,204.64 -367.1,-108.34 -757.7,17.98 -623.6,258.7 134.1,240.73 577.5,383.71 990.7,459.54 413.2,75.83 359.4,592.95 359.4,592.95" />
      <path id="path44" style="fill:#e6cbbc;fill-opacity:1;fill-rule:nonzero;stroke:none"
        d="m 9726.98,10018.7 c 0,0 -153.28,-228.68 -170.14,-352.37 -20.25,-148.54 114.48,-180.64 288.22,-168.89 98.2,6.63 191.24,64.3 320.44,14.95 525,-200.54 508,58.61 600.2,115.69 92.2,57.07 188.9,-138.64 188.9,-138.64 0,0 340.6,-211.49 458.1,-655.11 0,0 -331.9,329.08 -523.7,403.78 -191.9,74.71 -615.4,101.15 -843.5,33.63 -228.03,-67.52 -501.69,68.37 -558.44,174.93 -56.75,106.56 -39.51,277.69 37.1,366.8 76.62,89.11 202.82,205.23 202.82,205.23" />
      <path id="path46" style="fill:#211d1d;fill-opacity:1;fill-rule:nonzero;stroke:none"
        d="m 13489.8,10657.2 769.9,-150.4 c 4,19.7 7.9,39.4 11.7,59.2 l -781.8,147.2 c 0.2,-18.8 0.3,-37.4 0.2,-56" />
      <path id="path48" style="fill:#211d1d;fill-opacity:1;fill-rule:nonzero;stroke:none"
        d="m 13487.2,10534.1 745,-156.8 c 4.3,19.5 8.5,39.1 12.7,58.7 l -755.9,154 c -0.4,-18.8 -1.1,-37.4 -1.8,-55.9" />
      <path id="path50" style="fill:#211d1d;fill-opacity:1;fill-rule:nonzero;stroke:none"
        d="m 13480.6,10411.2 721.9,-162.9 c 4.6,19.5 9.3,38.9 13.8,58.6 l -732.2,160.1 c -1.1,-18.9 -2.3,-37.5 -3.5,-55.8" />
      <path id="path52" style="fill:#211d1d;fill-opacity:1;fill-rule:nonzero;stroke:none"
        d="m 13470.2,10288.5 700.7,-168.5 c 4.9,19.3 9.7,38.7 14.5,58.2 l -710,166 c -1.7,-18.9 -3.4,-37.4 -5.2,-55.7" />
      <path id="path54" style="fill:#211d1d;fill-opacity:1;fill-rule:nonzero;stroke:none"
        d="m 13456.3,10166.3 681.3,-173.89 c 5.1,19.19 10.2,38.29 15.4,57.99 l -689.9,171.4 c -2.2,-19.1 -4.5,-37.5 -6.8,-55.5" />
      <path id="path56" style="fill:#211d1d;fill-opacity:1;fill-rule:nonzero;stroke:none"
        d="m 13438.9,10044.4 663.7,-179.17 c 5.4,18.94 10.7,38.21 16.1,57.75 l -671.5,176.82 c -2.8,-19.4 -5.5,-37.9 -8.3,-55.4" />
      <path id="path58" style="fill:#211d1d;fill-opacity:1;fill-rule:nonzero;stroke:none"
        d="m 10201.2,4494.8 c -84.2,49.1 -325.26,275.9 -425.89,492.3 l -37.47,716.7 c 0,0 -155.49,-204.3 -311.06,-448.5 v 0 c 0,0 -152.29,-210.3 -1021.06,-369.6 -756.98,-138.8 -926.69,-202.7 -926.69,-202.7 0,0 69.74,-7 265.57,-32.1 l 503.65,-1106.4 -350.29,1097.3 c 44.62,-6.5 90.42,-13.8 136.35,-22.2 58.89,-229.7 207.15,-779.5 364.17,-1138.4 202.71,-463.4 716.73,-781.9 716.73,-781.9 0,0 -383.7,347.5 -557.46,633.5 -157.26,258.8 -355.86,1101.7 -392.14,1259.4 38.38,-9 75.84,-18.9 111.72,-29.7 45.83,-240 146.26,-699.8 303.95,-1081.3 213.5,-516.5 1042.53,-1158.4 1042.53,-1158.4 0,0 -637.1,658.8 -832.84,1010 -117.31,210.4 -269.09,826.8 -346.92,1165 65.64,-33.5 115.18,-72.7 137.83,-118.9 127.91,-260.6 127.9,-767.4 533.33,-1216.3 405.43,-448.8 868.24,-1143.8 868.24,-1143.8 0,0 -434.65,938.1 -535.78,1701.1 134.34,159.6 398.62,448.4 535.78,427.3 188.75,-28.9 396.65,-814.4 396.65,-814.4 l 55.3,231.2 c 0,0 -60.5,829.4 -234.2,930.8" />
      <path id="path60" style="fill:#211d1d;fill-opacity:1;fill-rule:nonzero;stroke:none"
        d="m 10552.7,9397.85 c -154.8,-25.46 -206.9,57.2 -387.2,114.54 -180.31,57.34 -182.05,-63.11 -182.05,-63.11 0,0 3.08,-73.28 46.85,-122.11 43.7,-48.83 211.7,-10.04 321.2,-10.9 109.5,-0.87 307.4,-16.43 425.6,92.69 4.3,3.98 8.2,8.01 11.7,12.07 17,19.54 43.4,27.11 67.4,17.45 83.8,-33.74 224.4,-124.44 396.4,-367.99 41.5,-58.82 79.7,-128.2 114.9,-203.66 8.4,-18.01 25.6,-29.37 45.2,-32.5 5.1,-0.8 10.2,-1.91 15.1,-3.32 -50.2,110.12 -103.1,213.59 -156.4,302.81 -154.3,258.13 -321.1,415.03 -429.7,499.11 -42.2,32.72 -102.2,-4.61 -92.2,-57.07 1.9,-9.78 1.8,-19.9 -1.7,-29.24 -22.1,-59.4 -88.7,-131.27 -195.1,-148.77" />
      <path id="path62" style="fill:#211d1d;fill-opacity:1;fill-rule:nonzero;stroke:none"
        d="m 8810.41,7209.67 c 222.63,-548.41 613.57,-760.17 705.88,-939.36 92.31,-179.18 -19.18,-369.21 -19.18,-369.21 0,0 250.58,5.1 247.58,314.83 699.11,-460.43 601.31,-780.03 601.31,-780.03 0,0 810.8,166.5 1151.1,535.8 340.3,369.2 355.6,562.22 355.6,562.22 0,0 42.6,-221.98 -73.3,-417.46 0,0 492.4,238.92 803.7,687.78 162.2,233.89 257.2,401.05 311.3,508.08 v -0.28 c 0,0 -86.9,-247.16 0,-355.76 0,0 324.7,519.6 615.3,1120.81 465.4,962.43 563.8,1686.26 563.8,1686.26 l -0.1,0.01 c 3.2,10.94 6.4,21.7 9.6,32.84 l -655.1,182.05 c -301.9,-965.88 -663.8,-1609.23 -1460.2,-2211.12 -452.6,-342.06 -1270.5,-474 -1411.8,-362 -157.4,124.88 -102.4,394.19 -102.4,394.19 l -1.8,0.2 c 327.8,112.11 451,403.41 451,403.41 0,0 -287,-302.24 -737.8,-298.81 -404.59,3.09 -576.22,306.94 -576.22,306.94 0,0 54.97,-290.7 332.51,-407.46 14.79,-43.9 72.46,-229.75 32.04,-340.67 -60.45,-140.66 -413.56,-34.92 -776.48,436.33 -164.64,213.79 -258.07,404.99 -311.48,550.8 -38.66,132.24 -78.51,293.89 -95.02,444.59 -25.56,233.75 -20.34,542.59 -5.77,760.06 l 91.44,657.69 -25.85,132.8 c 0,0 -267.59,-1090.3 -246.87,-1889.33 l -1.32,-0.26 c 0,0 5.91,-797.53 228.53,-1345.94" />
      <path id="path64" style="fill:#211d1d;fill-opacity:1;fill-rule:nonzero;stroke:none"
        d="m 10060.7,8799.46 c 5.3,0.31 10.5,0.79 15.7,1.04 40.3,-7.16 188.1,-42.59 437.8,-196.12 -223.2,18.52 -482.1,26.76 -685.48,-4.68 -55.1,-8.51 -101.91,-15.24 -142.36,-20.64 187.95,97.26 348.04,202.85 374.34,220.4 z m 644.9,-322.83 c 36.6,-26.35 73.3,-49.57 109.9,-71.43 -97.8,-65.27 -349.2,-209.3 -657.8,-203.68 -181.58,3.3 -321.61,69.26 -420.73,139.99 l -6.28,37.72 c 0.83,-3.69 164.4,-4.44 175.09,13.18 -78.9,8.15 -148.41,20.22 -172.47,36.26 -33,21.99 -31.28,70.73 -26.71,100.39 105.7,-7.11 261.4,-12.19 466.7,-4.11 165.9,6.52 320.2,9.94 446.1,11.72 27.8,-18.78 56.4,-38.53 86.2,-60.04 z m -1613.65,270.33 c -22.21,-10.47 -45.99,-16.46 -70.85,-13.99 -115.84,11.53 -130.32,154.34 -130.32,154.34 0,0 -65.16,-388.96 217.2,-468.6 13.13,-4.38 27.64,-6.99 42.84,-8.67 2.76,-0.34 5.59,-0.78 8.27,-1.02 3.14,-0.24 6.4,-0.31 9.61,-0.45 4.66,-0.21 9.3,-0.38 13.72,-0.27 84.33,-0.13 191.27,31.02 301.61,76.17 14.13,-33.3 34.68,-73.19 63.5,-114.71 88.28,-154.37 272.23,-333.18 648.17,-305.8 85.9,6.25 161.1,16.92 227.6,30.55 213.6,37.46 377.5,133.57 480.5,261.3 354.6,-180.93 692.4,-161.48 875.6,33.94 217.2,231.67 0,528.5 0,528.5 0,0 7.3,-254.18 -246.1,-239.31 -253.4,14.88 -610.8,592.8 -1107.7,592.8 -336.6,0 -398.2,-67.52 -398.2,-67.52 0,0 -340.07,131.44 -615.69,-126.69 -133.03,-124.6 -238.78,-261.62 -319.76,-330.57" />
      <path id="path66" style="fill:#211d1d;fill-opacity:1;fill-rule:nonzero;stroke:none"
        d="m 9726.98,10018.7 c 0,0 -424.95,-331.83 -263.67,-537.76 64.58,-117.47 229.35,-152.18 319.81,-162.5 37.56,-4.79 61.94,-4.48 61.94,-4.48 0,0 -0.85,2.41 -2.29,5.99 -12.71,32.68 -82.14,198.97 -177.33,191.96 -105.52,-7.76 -173.76,21.72 -137.56,166.52 36.2,144.79 199.1,340.27 199.1,340.27" />
      <path id="path68" style="fill:#211d1d;fill-opacity:1;fill-rule:nonzero;stroke:none"
        d="m 14036.4,9501.05 c 0,0 0.9,-3.3 2.7,-8.63 14.6,-47.25 93.3,-290.95 176.5,-349.74 92.3,-65.15 176.5,0 176.5,0 0,0 -114.1,1.49 -159.9,211.77 -2.4,10.83 -7.1,21.12 -13.3,30.92 40.6,10.24 89.7,35.39 148.8,83.11 106.8,86.35 103.1,260.63 24.4,472.39 -107.8,290.13 225.3,423.53 252.5,287.83 27.1,-135.8 -86.9,-553.89 -86.9,-553.89 0,0 43.4,92.3 124.9,336.49 81.4,244.1 92.3,429.1 0,499.7 -92.3,70.6 -293.2,-86.9 -369.2,-282.3 -76.1,-195.5 -10.9,-238.96 -43.5,-515.88 -32.6,-276.92 -233.5,-211.77 -233.5,-211.77" />
      <path id="path70" style="fill:#211d1d;fill-opacity:1;fill-rule:nonzero;stroke:none"
        d="m 11751.7,10980.6 c -381.4,150.5 -744.7,192.8 -896.4,39.2 -30.5,-30.9 -57.1,-116.8 -30,-150.8 10.2,-12.8 24.2,-15.8 43.2,5.1 0,0 43.4,73.9 179.2,114.7 135.7,40.7 521.2,12.2 708.6,-68.6 0,0 -739.4,158.2 -906.2,-156.7 -0.6,-1.8 -1.4,-3.7 -1.9,-5.5 -2.4,-7.1 -4.4,-14.4 -5.6,-22 -57.5,-254.1 308.2,-299 308.2,-299 -180.9,79.6 -224.4,191.8 -224.4,224.2 0,32.3 86.9,18.3 550.9,-21.5 464.1,-39.8 718.5,82.3 718.5,82.3 -67.2,68.3 -194.3,160.1 -444.1,258.6" />
      <path id="path72" style="fill:#211d1d;fill-opacity:1;fill-rule:nonzero;stroke:none"
        d="m 11926.1,11475.7 c -311.6,92.7 -1206.3,-21.2 -1206.3,-21.2 0,0 -24.8,-260.9 167.9,-261.3 192.9,-0.5 641.5,147.2 957.3,69.4 315.8,-77.7 528.6,-255.2 528.6,-255.2 0,0 -135.9,375.6 -447.5,468.3" />
      <path id="path74" style="fill:#211d1d;fill-opacity:1;fill-rule:nonzero;stroke:none"
        d="m 8933.39,11186.2 c 0,0 47.92,12.1 121.79,25.6 2.43,0.4 201.5,32.4 431.54,-11.2 88.48,-13.5 175.99,-37.5 252.9,-77 -118.65,3.6 -263.89,-30.6 -415.58,-93.4 -192.82,-79.8 -294.84,-161.8 -350.63,-224.9 0,0 175.44,-140.2 520.19,-134.5 344.75,5.7 409.91,13.3 406.87,-18.9 -3.04,-32.2 -45.52,-140.7 -186.02,-206.7 0,0 273.01,17.9 254.65,275 -0.13,7.8 -0.94,15.2 -2.01,22.4 -0.23,1.8 -0.62,3.8 -0.89,5.6 -92.98,325.6 -651.17,222.3 -651.17,222.3 145.26,66.7 431.23,66.8 527.15,16.4 95.92,-50.5 120.88,-127.3 120.88,-127.3 4.46,-8.2 8.66,-12.3 12.7,-14.6 58.44,-178.4 28.74,-339 -25.59,-465.2 -9.08,-35.7 -16.26,-57 -16.26,-57 0,0 243.49,351.1 81.19,713.1 -96.68,215.5 -270.8,329.2 -396.19,386.2 -2.18,1 -4.36,2 -6.54,3 -6.73,3 -13.31,5.9 -19.71,8.6 -6.1,2.6 -12.23,5 -18.38,7.4 -5.88,2.3 -11.54,4.5 -17.04,6.5 -2.14,0.8 -4.28,1.6 -6.43,2.3 -48.26,17.3 -80.01,23.8 -80.01,23.8 h -0.01 c -194.48,48.4 -385.22,31.3 -423.55,33.7 -19.12,1.3 -31.06,8.2 -37.58,19.8 29.87,112.6 65.59,234.2 108.46,363.7 69.7,203 286.48,851.4 252.48,778.4 -54.86,-117.7 -130.47,-287 -207.31,-468.3 -110.08,-254.6 -232.2,-548.1 -279.49,-702.1 -94.38,-307.4 -23.2,-800.2 -23.2,-800.2 l 72.79,487.5" />
      <path id="path76" style="fill:#211d1d;fill-opacity:1;fill-rule:nonzero;stroke:none"
        d="m 10436.5,3007 c -102,0 -184.6,-82.7 -184.6,-184.6 0,-102 82.6,-184.6 184.6,-184.6 101.9,0 184.6,82.6 184.6,184.6 0,101.9 -82.7,184.6 -184.6,184.6" />
      <g transform="scale(1.14728)" id="g78">
        <path id="path80" style="fill:#211d1d;fill-opacity:1;fill-rule:nonzero;stroke:none"
          d="m 13227,5138.4 23.9,146.88 c -244.9,104.22 -416.2,221.73 -535.6,329.58 -39.7,52.26 -106.2,109.3 -163.5,178.91 -67.4,92.07 -91.4,158.15 -96,172.03 -0.3,1.02 -0.7,1.97 -1,2.98 -175.6,647.74 -138,1699.04 -138,1699.04 37.7,-20.78 90.8,-40.46 158,-37.78 65.9,3.03 147.6,31.38 205,105.97 56.2,74.89 76.6,168.6 108.4,260.66 30.1,93.6 69.8,190.81 124.4,290.58 14.5,24.83 29.3,50.13 44.4,75.89 16.3,27.18 31.9,55.33 46.9,84.34 30.3,58.02 58.6,119.47 83.9,184.75 49.7,130.56 92.8,275.46 98.3,440.28 1.6,82.95 -7.8,168.32 -43.5,248 -15,35.1 -36.8,67.68 -62.8,96.17 l 27,321.83 -0.1,0.06 c 5.2,59.34 9.4,120.37 12,182.75 18.7,445.08 -93.8,632.78 -429.2,1100.08 -335.5,467.3 -778.5,494.7 -778.5,494.7 0,0 67.2,141.5 -175.6,373.8 -242.8,232.3 -520.3,264.6 -1135,562.2 -614.8,297.7 -1004.42,476.1 -1904.02,66.5 -959.01,-436.7 -482.56,-1329.1 -482.56,-1329.1 l 8.48,10.7 c 359.99,530 1105.31,772.5 1925,715.1 963.6,-67.5 1333.7,-510.1 1396.9,-595.8 43.5,-34.5 91.4,-74.3 142,-119.1 131.3,-116.7 279.9,-269.3 408.9,-446.8 64.6,-88.5 123.3,-184 173.7,-280.6 24.7,-48.2 46.6,-96.7 66.9,-143.4 18.2,-47.7 37.7,-92.8 51.1,-137.5 58.9,-176.8 78.2,-321.09 86.3,-383.46 6.9,-55.12 11.4,-166.03 4,-265.33 -6.1,-98.78 -24.3,-188.31 -28.1,-205.67 -0.3,-1.28 2.6,15.84 3.5,25.77 1.6,13.43 2.7,28.56 4.1,47.56 2,36.7 3.5,84.27 1.9,133.48 -1.9,98.96 -15.6,207.28 -22.4,261.49 -8,61.04 -27.1,202.36 -84.9,375.56 -13,43.8 -32.3,88 -50.1,134.7 -20.1,45.8 -41.3,93.3 -65.7,140.5 -49.4,94.8 -107,188.4 -170.5,275.5 -123.2,169.4 -264.8,316 -391.7,429.9 l -14.1,-41.7 c 122,-110.8 256.4,-251.2 373.4,-412.3 62.5,-85.7 119,-177.7 167.5,-270.5 23.7,-46.4 44.7,-92.9 64.2,-137.8 17.4,-45.9 36.3,-89.2 49.1,-132.1 56.5,-169.85 75.2,-308.43 83,-368.3 6.6,-52.91 10.6,-159.44 3.4,-254.31 -6,-94.48 -23.7,-179 -26.7,-192.85 3.1,14 11.5,100.11 8.1,193.98 -2,94.49 -15.4,198.42 -21.9,250.4 -7.7,58.55 -26,194.18 -81.5,360.48 -12.4,42 -31.1,84.4 -48.1,129.3 -19.3,43.9 -39.7,89.5 -63,134.9 -47.4,90.9 -103,181.1 -164.4,265.4 -111.2,153.1 -238.8,287.7 -356.1,395.4 l -14.1,-41.7 c 112,-104.3 232.7,-233 337.9,-377.8 60.4,-82.8 114.7,-171.5 161.2,-260.5 22.8,-44.4 42.9,-89.1 61.6,-132.2 16.8,-44 35,-85.5 47.1,-126.6 54.3,-162.9 72.1,-295.77 79.6,-353.15 6.3,-50.69 10,-152.85 2.9,-243.27 -6,-90.18 -23,-169.69 -25.4,-180.04 2.4,10.49 10.3,91.58 6.8,181.13 -2.2,90.04 -15.2,189.57 -21.4,239.34 -7.3,56.05 -24.9,185.99 -78.1,345.29 -11.8,40.3 -29.8,80.9 -46,123.9 -18.6,42.1 -38.1,85.9 -60.5,129.3 -45.4,87.1 -98.7,174 -158.1,255.4 -99.7,137.1 -213.6,259.6 -320.7,360.4 l -14.2,-42.1 c 101.8,-97 208.7,-213.3 302.5,-342.4 58.4,-80 110.5,-165.2 155,-250.4 21.9,-42.6 41.1,-85.3 59.1,-126.6 15.9,-42.1 33.4,-81.8 45,-121.2 52,-155.95 69.1,-283.12 76.2,-338 6.1,-48.47 9.4,-146.25 2.4,-232.24 -5.9,-85.88 -22.3,-160.39 -24,-167.22 1.7,6.97 9,83.05 5.4,168.28 -2.3,85.59 -14.9,180.73 -20.8,228.27 -7.1,53.56 -23.8,177.8 -74.7,330.21 -48.3,152.7 -139.2,330.5 -253.9,487.5 -88.3,121.4 -188.8,231.8 -285.3,325.1 l -14.4,-42.5 c 91.1,-89 184.8,-193 267.3,-306.7 112.6,-154.2 201.2,-327.7 248.3,-477.1 49.6,-149 66,-270.46 72.8,-322.85 5.8,-46.25 8.7,-139.66 1.8,-221.2 -5.7,-81.57 -21.6,-151.08 -22.5,-154.42 1,3.46 7.6,74.52 4,155.45 -2.4,81.13 -14.7,171.88 -20.2,217.19 -6.8,51.07 -22.8,169.62 -71.3,315.03 -46.2,145.9 -132.7,315.1 -243.1,466.5 -77.2,106.2 -164.6,204.1 -250.3,289.1 l -14.4,-42.8 c 79.9,-80.5 160.7,-171.8 232.3,-270.4 108.4,-148.6 192.4,-313.5 237.5,-456.1 47.3,-141.95 62.8,-257.71 69.3,-307.6 5.5,-44.03 8.2,-133.06 1.3,-210.16 -2.9,-38.57 -8.1,-74.1 -12.5,-99.86 -4.6,-25.78 -8.7,-41.75 -8.7,-41.75 0,0 1.8,16.47 2.9,42.55 0.9,26.09 1.5,61.76 -0.2,100.05 -2.5,76.68 -14.4,163.04 -19.7,206.12 -6.5,48.59 -21.7,161.43 -67.9,299.85 -44,139.2 -126,299.6 -232.2,445.5 -66.3,91.3 -141,176.4 -215.5,252.4 l -14.4,-42.7 c 68.6,-70.9 136.9,-149.4 197.5,-233.8 104.2,-143 183.7,-299.2 226.6,-435 45,-135.01 59.8,-245.05 66,-292.43 5.2,-41.84 7.4,-126.48 0.7,-199.15 -5.6,-72.98 -20.2,-132.46 -19.8,-128.8 -0.4,-3.55 5,57.47 1.3,129.76 -2.6,72.23 -14.1,154.2 -19.2,195.06 -6.1,46.09 -20.6,153.23 -64.5,284.76 -41.9,132.3 -119.3,284.1 -221.4,424.3 -55.6,76.7 -117.7,149.1 -180.8,215.4 l -14.5,-43.1 c 56.9,-61.1 112.7,-127.1 162.9,-196.3 100.1,-137.5 175,-285 215.8,-413.9 42.7,-128.06 56.7,-232.4 62.6,-277.28 5,-39.61 6.8,-119.89 0.2,-188.11 -5.5,-68.68 -19.6,-123.16 -18.5,-115.99 -1,-7.08 3.8,48.94 0,116.92 -2.8,67.76 -13.9,145.35 -18.7,183.98 -5.8,43.6 -19.5,145.05 -61,269.58 -39.8,125.5 -112.7,268.6 -210.7,403.3 -45.1,62.2 -95,121.8 -146.2,177.6 l -14.9,-44.1 c 45,-50.2 89,-102.6 128.8,-157.5 95.8,-131.9 166.3,-270.7 204.9,-392.81 40.4,-121.1 53.6,-219.73 59.2,-262.12 4.7,-37.39 6.1,-113.29 -0.3,-177.07 -5.4,-64.38 -18.9,-113.85 -17.1,-103.18 -1.8,-10.59 2.4,40.4 -1.4,104.08 -2.9,63.3 -13.6,136.49 -18.1,172.9 -5.5,41.12 -18.4,136.86 -57.7,254.47 -37.6,118.63 -106,253.13 -199.7,382.23 -34.8,47.9 -73.1,94.1 -112.3,138.6 l -14.8,-43.9 c 33,-38.4 65.1,-78 94.6,-118.7 91.6,-126.3 157.7,-256.5 194.2,-371.71 38,-114.15 50.5,-207.08 55.7,-246.97 4.5,-35.17 5.5,-106.7 -0.8,-166.03 -5.4,-60.09 -18.2,-104.55 -15.7,-90.37 -2.5,-14.11 1.1,31.87 -2.8,91.23 -3.1,58.85 -13.3,127.66 -17.6,161.83 -5.2,38.62 -17.3,128.67 -54.2,239.33 -35.5,111.79 -99.5,237.59 -189,361.19 -24.5,33.8 -51,66.9 -78.3,99.3 l -15.1,-44.6 c 21.1,-25.8 41.7,-52.1 61,-78.7 87.5,-120.7 148.9,-242.2 183.4,-350.64 22.1,-66.54 35,-125.33 42.8,-169.34 32.9,-87.66 55,-181.02 55.7,-274.54 l 5.9,-107.52 624.8,-130.78 82.3,3.54 c 31.6,34.71 67.7,67.3 109.5,93.98 46,28.8 98.3,48.91 154.9,53.72 55.5,5.77 118.8,-4.84 172.7,-26.59 52.8,-23.87 95.1,-62.4 119.3,-118.73 25.4,-55.32 33.9,-124.64 32.5,-196.15 -4.9,-148.44 -45.3,-290.9 -91.8,-417.45 -23.6,-63.5 -49.6,-123.63 -77.1,-180.02 -14.1,-28.58 -27.9,-54.19 -42.9,-82.67 -14.8,-28.75 -29.9,-56.52 -42.3,-85.02 -52.7,-112.4 -84.3,-222.4 -106.8,-319.75 -22.9,-97.24 -38.9,-182.05 -81,-234.84 -20.5,-26.45 -47.3,-47.23 -75,-60.62 -27.5,-13.5 -55.8,-21.84 -83,-24.34 -54.1,-5 -101.5,5.59 -135.8,20.25 -17.8,7.44 -32.4,15.72 -44.2,23.92 l -42.8,45.74 c 0,0 4.7,-1066.45 -99.4,-1801.11 -61.7,-434.93 -752.7,-769.2 -1254.2,-1057.45 -798.4,-458.91 -1205.43,-739.66 -1410.09,-899.34 -124.38,-97.1 -211.89,-233.51 -248.59,-387 l -169.96,-710.9 c 0,0 427.01,905.01 613.88,785.6 105.73,-67.55 206.58,-149.48 299.32,-235.51 l 243.34,-370.27 -872.83,-1665.94 c 0,0 2510.53,2297 2840.23,2461.04 44.5,22.13 95.1,33.47 150.6,37.83 l -2168.4,-1968.75 2400.5,1957.59 c 57.7,-7.41 118.3,-17 181.1,-26.67 L 10778,2296.73 12954.4,3850.06 c 93.5,-9.94 190,-15.17 288,-10.12 l -1817.2,-1285.21 2591.4,1586.53 c 411.1,227.5 591.1,246.24 996,192.98 479.7,-63.1 1287.4,-201.95 1287.4,-201.95 0,0 -1980.2,507.55 -3073,1006.11" />
      </g>
      <path id="path82" style="fill:#505256;fill-opacity:1;fill-rule:nonzero;stroke:none"
        d="m 9908.46,9110.11 c 0,0 -141.18,83.25 -376.47,-61.54 -235.29,-144.8 -343.89,-351.57 -459.73,-382.12 -115.83,-30.55 -155.65,63.57 -155.65,63.57 0,0 32.58,-264.25 231.67,-257.01 199.1,7.24 342.25,83.25 464.34,162.89 0,0 -276.1,-141.17 -457.09,-128.5 -181,12.66 -190.05,137.55 -190.05,137.55 0,0 54.3,-114.02 280.54,-38.01 226.24,76.02 298.64,235.3 423.52,291.4 0,0 -40.69,4.14 -202.71,-132.13 -162.01,-136.26 -258.82,-141.17 -289.59,-144.79 0,0 114.03,36.2 267.88,199.1 153.84,162.89 259.84,261.5 343.88,282.35 84.05,20.84 119.46,7.24 119.46,7.24" />
      <path id="path84" style="fill:#505256;fill-opacity:1;fill-rule:nonzero;stroke:none"
        d="m 10132.9,9133.92 c 0,0 235.3,106.5 539.4,-23.81 304,-130.32 600.9,-504.64 821.7,-531.05 220.8,-26.41 282.3,87.39 282.3,87.39 0,0 -9.4,-247.74 -314.9,-327.38 -305.5,-79.64 -755.8,350.71 -755.8,350.71 0,0 405,-302.74 600.1,-320.77 195.2,-18.03 333.1,103.85 333.1,103.85 0,0 -211,-314.78 -662.5,166.66 -322.2,343.62 -580.2,409.05 -700.9,419.91 0,0 201.4,61.54 501.8,-137.56 300.5,-199.09 479.5,-369.22 650.6,-405.43 171.1,-36.19 279.7,62.62 279.7,62.62 0,0 -151.9,-96.81 -387.3,42.36 -235.4,139.17 -485.5,437.71 -806,512.5 -254.6,59.44 -381.3,0 -381.3,0" />
      <path id="path86" style="fill:#505256;fill-opacity:1;fill-rule:nonzero;stroke:none"
        d="m 14480.4,10916.4 c 0,0 32.5,72.4 141.2,61.4 0,0 65.1,416.5 -68.8,850.8 -140.4,455.2 -307.9,622.7 -307.9,622.7 0,0 248.1,-152.1 392.9,-550.3 144.8,-398.1 110,-784.8 110,-784.8 0,0 112.7,382.7 -153.4,974.9 -158.4,352.6 -460.8,523.2 -748.3,623.1 164.8,-177.3 335.2,-404.1 425.3,-653.9 209,-579.2 209,-1143.9 209,-1143.9" />
      <path id="path88" style="fill:#505256;fill-opacity:1;fill-rule:nonzero;stroke:none"
        d="m 10234.2,13834.1 c -564.66,-249.8 -678.68,-472.4 -678.68,-472.4 0,0 618.98,662.4 1840.68,640.7 1221.7,-21.7 2025.4,-906.8 2025.4,-906.8 0,0 -161.6,251.9 -555.7,521.3 -394.1,269.3 -1078.7,416.2 -1078.7,416.2 0,0 684.1,-94.1 1151.1,-394.5 467,-300.5 597.3,-488.7 597.3,-488.7 0,0 -141.2,559.3 -814.5,673.3 -673.3,114 -1129.4,662.4 -1884.1,581 -754.8,-81.5 -1129.44,-461.5 -1281.48,-841.6 0,0 249.77,434.4 966.48,559.2 716.8,124.9 1023.6,-81.4 1023.6,-81.4 0,0 -664.5,79.8 -1311.4,-206.3" />
      <path id="path90" style="fill:#505256;fill-opacity:1;fill-rule:nonzero;stroke:none"
        d="m 11876,3683.9 1294,738.5 -1623.8,-1784.6 3628.9,3257.4 27.4,168.5 L 11876,3683.9" />
      <path id="path92" style="fill:#505256;fill-opacity:1;fill-rule:nonzero;stroke:none"
        d="m 9347.38,4002.5 v 926.6 l -390.16,-405.4 z" />
      <path id="path94" style="fill:#505256;fill-opacity:1;fill-rule:nonzero;stroke:none"
        d="m 11673.2,7296.55 c 0,0 173.7,-152.04 152,-423.53 -21.7,-271.49 -97.8,-363.8 -97.8,-363.8 0,0 161.4,168.32 148.6,450.68 -12.8,282.35 -78,380.08 -78,380.08 0,0 537.6,190.05 781.9,640.72 0,0 -396.3,-477.82 -939.3,-619 -543,-141.17 -754.8,-114.03 -754.8,-114.03 0,0 152.1,-86.87 244.4,-439.81 92.3,-352.93 -143.5,-744.16 -143.5,-744.16 0,0 100.8,347.78 0,765.88 -100.9,418.09 -525.8,407.24 -606.6,602.71 -80.7,195.47 -59,352.94 -59,352.94 l -266,-10.86 c 0,0 41.6,-309.5 45.2,-651.58 3.6,-342.08 279.8,-901.35 279.8,-901.35 0,0 -196.6,195.47 -279.8,504.98 -83.2,309.49 -94.1,488.68 -94.1,488.68 0,0 -196.46,-48.87 -267.05,0 0,0 -31.59,-86.88 93.3,-412.67 124.88,-325.79 300.45,-521.26 300.45,-521.26 0,0 -338.47,266.06 -425.34,575.56 -86.88,309.5 -38.48,385.52 -38.48,385.52 l -63.3,29.28 c 0,0 -0.29,-0.32 -0.34,-0.37 -82.39,40.54 -226.26,122.39 -317.66,237.15 0,0 53.83,-135.75 190.65,-266.06 28.25,-26.91 50.64,-45.38 68.8,-58.28 -39.34,-74.6 -84.02,-197.41 -84.02,-370.68 0,-299.59 114.03,-456.1 114.03,-456.1 0,0 -164.71,532.12 38.01,754.74 0,0 -38.01,-396.37 255.2,-640.72 293.25,-244.34 385.55,-423.51 477.85,-581.01 92.3,-157.4 87.1,-314.9 87.1,-314.9 0,0 271.2,162.9 244.1,624.42 -27.2,461.54 -276.9,895.92 -276.9,895.92 0,0 293.7,-130.31 412.9,-542.98 119.2,-412.67 -43.7,-705.86 -43.7,-705.86 0,0 222.6,-48.9 532.1,374.64 309.5,423.52 242.3,1037.1 242.3,1037.1 0,0 132.4,-233.49 29.2,-657.01 C 11472.2,6178 11217,5971.7 11217,5971.7 c 0,0 342.1,130.29 456.2,640.69 114,510.4 0,684.16 0,684.16" />
    </g>
  </g>
</svg>